<?xml version="1.0" encoding="UTF-8" standalone="no"?>
<!-- Created with Inkscape (http://www.inkscape.org/) -->

<svg
   width="75.664352mm"
   height="11.795049mm"
   viewBox="0 0 75.664352 11.795049"
   version="1.1"
   id="svg1"
   xml:space="preserve"
   inkscape:version="1.4 (86a8ad7, 2024-10-11)"
   sodipodi:docname="drawing.svg"
   xmlns:inkscape="http://www.inkscape.org/namespaces/inkscape"
   xmlns:sodipodi="http://sodipodi.sourceforge.net/DTD/sodipodi-0.dtd"
   xmlns="http://www.w3.org/2000/svg"
   xmlns:svg="http://www.w3.org/2000/svg"><sodipodi:namedview
     id="namedview1"
     pagecolor="#ffffff"
     bordercolor="#000000"
     borderopacity="0.25"
     inkscape:showpageshadow="2"
     inkscape:pageopacity="0.0"
     inkscape:pagecheckerboard="0"
     inkscape:deskcolor="#d1d1d1"
     inkscape:document-units="mm"
     inkscape:zoom="0.78840488"
     inkscape:cx="594.23782"
     inkscape:cy="603.11651"
     inkscape:window-width="1920"
     inkscape:window-height="1129"
     inkscape:window-x="-8"
     inkscape:window-y="-8"
     inkscape:window-maximized="1"
     inkscape:current-layer="svg1"
     showguides="true"><inkscape:page
       x="0"
       y="0"
       width="75.664352"
       height="11.795049"
       id="page2"
       margin="0"
       bleed="0" /></sodipodi:namedview><defs
     id="defs1" /><g
     id="g53"
     inkscape:label="BIT by Bit"
     transform="translate(-40.432268,-212.19583)"
     inkscape:export-filename="g53.svg"
     inkscape:export-xdpi="96"
     inkscape:export-ydpi="96"><path
       style="font-size:7.76111px;font-family:'Flighter PERSONAL USE ONLY';-inkscape-font-specification:'Flighter PERSONAL USE ONLY, Normal';display:inline;opacity:1;fill:#383838;fill-opacity:1;stroke-width:1.489;stroke-linecap:round;stroke-linejoin:round;paint-order:stroke fill markers"
       d="m 76.848242,216.40576 c 0.300097,0 0.538105,0.0414 0.714023,0.12417 0.181092,0.0776 0.313031,0.17592 0.395816,0.29493 0.08796,0.11383 0.134526,0.24059 0.1397,0.38029 0.0052,0.13453 -0.0155,0.2587 -0.06209,0.37253 -0.06209,0.15523 -0.157807,0.30269 -0.287161,0.44239 -0.129352,0.13453 -0.2794,0.25612 -0.450144,0.36477 -0.170744,0.10348 -0.351837,0.18885 -0.543278,0.25612 -0.19144,0.0673 -0.377707,0.10606 -0.5588,0.11641 0.336315,0.0569 0.576909,0.19663 0.721783,0.4191 0.144874,0.22249 0.173331,0.51224 0.08537,0.86925 -0.04139,0.17074 -0.124178,0.34666 -0.248356,0.52775 -0.119004,0.18109 -0.276813,0.34666 -0.473428,0.49671 -0.19144,0.14487 -0.413925,0.26647 -0.667455,0.36478 -0.25353,0.0931 -0.53293,0.1397 -0.8382,0.1397 h -4.4704 l 2.910416,-5.1689 z m -2.731911,2.58445 -1.179689,2.0955 h 0.6985 c 0.150048,0 0.292335,-0.0259 0.426861,-0.0776 0.134526,-0.0569 0.256117,-0.12937 0.364773,-0.21731 0.11383,-0.0931 0.212137,-0.20179 0.294922,-0.32596 0.08796,-0.12418 0.15781,-0.25612 0.20955,-0.39582 0.05174,-0.1397 0.07761,-0.27423 0.07761,-0.40358 0.0052,-0.12935 -0.0155,-0.24318 -0.06209,-0.34149 -0.04657,-0.10348 -0.119003,-0.18368 -0.217311,-0.24059 -0.09831,-0.0621 -0.222485,-0.0931 -0.372533,-0.0931 z m 1.226256,-2.18088 -0.985661,1.76178 h 0.465666 c 0.269052,0 0.519995,-0.0854 0.752828,-0.25612 0.232834,-0.17592 0.411339,-0.39582 0.535517,-0.6597 0.05174,-0.11383 0.08796,-0.21989 0.108655,-0.3182 0.02587,-0.10348 0.02587,-0.19403 0,-0.27164 -0.02069,-0.0776 -0.06726,-0.1397 -0.1397,-0.18627 -0.07244,-0.0466 -0.175918,-0.0699 -0.310444,-0.0699 z m 2.355417,1.53394 c 0.170744,-0.10865 0.320792,-0.23024 0.450144,-0.36477 0.129354,-0.1397 0.225071,-0.28716 0.287161,-0.44239 0.04659,-0.11383 0.06729,-0.238 0.06209,-0.37253 -0.0052,-0.1397 -0.05174,-0.26646 -0.1397,-0.38029 -0.08279,-0.11901 -0.214724,-0.21733 -0.395816,-0.29493 l -0.202298,-0.0826 h 2.087739 l -0.535517,2.78623 2.429228,-2.78623 h 0.752828 l -3.197578,3.66324 -0.853722,1.50566 h -2.017889 l 0.667456,-1.18745 0.309576,-1.83549"
       id="text50"
       inkscape:label="BY Path"
       aria-label="BY"
       sodipodi:nodetypes="sccccccscsccccsccsccscccscccccccsccccscccccccccccccccccc" /><path
       d="m 55.301866,212.24337 c 0.682037,0 1.222963,0.0941 1.622778,0.28222 0.411575,0.17639 0.711436,0.39981 0.899584,0.67028 0.199908,0.2587 0.305742,0.5468 0.3175,0.8643 0.01176,0.30575 -0.03528,0.58797 -0.141111,0.84667 -0.141111,0.35278 -0.358657,0.68792 -0.65264,1.00542 -0.293982,0.30574 -0.635001,0.58208 -1.023055,0.82903 -0.388056,0.23519 -0.79963,0.42921 -1.234723,0.58208 -0.435093,0.15287 -0.858427,0.24107 -1.270001,0.26458 0.764352,0.12935 1.311157,0.44685 1.640418,0.9525 0.329258,0.50565 0.393935,1.16417 0.194028,1.97556 -0.09408,0.38806 -0.282223,0.78788 -0.564445,1.19945 -0.270463,0.41157 -0.629121,0.78787 -1.075973,1.12889 -0.435093,0.32926 -0.940742,0.6056 -1.516946,0.82903 -0.576204,0.21167 -1.211204,0.3175 -1.905001,0.3175 H 40.432272 l 6.614588,-11.74751 z m -6.208894,5.87375 -2.681112,4.7625 h 1.587501 c 0.341019,0 0.664398,-0.0588 0.970139,-0.17638 0.305741,-0.12935 0.582084,-0.29398 0.829028,-0.49389 0.258704,-0.21167 0.48213,-0.45861 0.670279,-0.74084 0.199907,-0.28222 0.358709,-0.58208 0.476302,-0.89958 0.117593,-0.3175 0.176337,-0.62324 0.176337,-0.91722 0.01176,-0.29399 -0.03528,-0.55269 -0.141111,-0.77612 -0.105833,-0.23518 -0.270463,-0.41745 -0.493889,-0.5468 -0.223426,-0.14111 -0.505649,-0.21167 -0.846668,-0.21167 z m 2.786947,-4.95653 -2.240141,4.00403 h 1.058334 c 0.611482,0 1.181807,-0.19403 1.710974,-0.58208 0.529167,-0.39982 0.934861,-0.89959 1.217084,-1.49931 0.117593,-0.25871 0.199908,-0.49977 0.246945,-0.72319 0.05879,-0.23519 0.05879,-0.44098 0,-0.61737 -0.04704,-0.17639 -0.152874,-0.3175 -0.317502,-0.42333 -0.164628,-0.10583 -0.399814,-0.15875 -0.705556,-0.15875 z m 2.692906,10.83029 4.086804,-7.24616 h 5.362226 l -4.069165,7.24616 z m 7.448389,0 4.874214,-8.65873 h -7.442796 l 1.734781,-3.08878 h 16.285478 l -1.616902,3.08878 h -3.598335 l -4.856576,8.65873 z"
       id="path50"
       style="font-size:17.6389px;font-family:'Flighter PERSONAL USE ONLY';-inkscape-font-specification:'Flighter PERSONAL USE ONLY, Normal';display:inline;opacity:1;fill:#00aced;stroke-width:1.489;stroke-linecap:round;stroke-linejoin:round;paint-order:stroke fill markers"
       aria-label="BIT"
       sodipodi:nodetypes="sccccccscsccccsccsccscccscccscccsccccssccccccccccccccc"
       inkscape:label="Bit 1" /><path
       d="m 93.925594,212.19583 c 0.682037,0 1.222963,0.0941 1.622778,0.28222 0.411575,0.17639 0.711436,0.39981 0.899584,0.67028 0.199908,0.2587 0.305742,0.5468 0.3175,0.8643 0.01176,0.30575 -0.03528,0.58797 -0.141111,0.84667 -0.141111,0.35278 -0.358657,0.68792 -0.65264,1.00542 -0.293982,0.30574 -0.635001,0.58208 -1.023055,0.82903 -0.388056,0.23519 -0.79963,0.42921 -1.234723,0.58208 -0.435093,0.15287 -0.858427,0.24107 -1.270001,0.26458 0.764352,0.12935 1.311157,0.44685 1.640418,0.9525 0.329258,0.50565 0.393935,1.16417 0.194028,1.97556 -0.09408,0.38806 -0.282223,0.78788 -0.564445,1.19945 -0.270463,0.41157 -0.629121,0.78787 -1.075973,1.12889 -0.435093,0.32926 -0.940742,0.6056 -1.516946,0.82903 -0.576204,0.21167 -1.211204,0.3175 -1.905001,0.3175 H 79.056 l 6.614588,-11.74751 z m -6.208894,5.87375 -2.681112,4.7625 h 1.587501 c 0.341019,0 0.664398,-0.0588 0.970139,-0.17638 0.305741,-0.12935 0.582084,-0.29398 0.829028,-0.49389 0.258704,-0.21167 0.48213,-0.45861 0.670279,-0.74084 0.199907,-0.28222 0.358709,-0.58208 0.476302,-0.89958 0.117593,-0.3175 0.176337,-0.62324 0.176337,-0.91722 0.01176,-0.29399 -0.03528,-0.55269 -0.141111,-0.77612 -0.105833,-0.23518 -0.270463,-0.41745 -0.493889,-0.5468 -0.223426,-0.14111 -0.505649,-0.21167 -0.846668,-0.21167 z m 2.786947,-4.95653 -2.240141,4.00403 h 1.058334 c 0.611482,0 1.181807,-0.19403 1.710974,-0.58208 0.529167,-0.39982 0.934861,-0.89959 1.217084,-1.49931 0.117593,-0.25871 0.199908,-0.49977 0.246945,-0.72319 0.05879,-0.23519 0.05879,-0.44098 0,-0.61737 -0.04704,-0.17639 -0.152874,-0.3175 -0.317502,-0.42333 -0.164628,-0.10583 -0.399814,-0.15875 -0.705556,-0.15875 z m 2.692906,10.83029 4.086804,-7.24616 h 5.362223 l -4.069162,7.24616 z m 7.448387,0 4.87422,-8.65873 h -7.4428 l 1.73478,-3.08878 h 16.28548 l -1.6169,3.08878 h -3.59834 l -4.85657,8.65873 z"
       id="path50-2"
       style="font-size:17.6389px;font-family:'Flighter PERSONAL USE ONLY';-inkscape-font-specification:'Flighter PERSONAL USE ONLY, Normal';display:inline;opacity:1;fill:#00aced;stroke-width:1.489;stroke-linecap:round;stroke-linejoin:round;paint-order:stroke fill markers"
       aria-label="BIT"
       sodipodi:nodetypes="sccccccscsccccsccsccscccscccscccsccccssccccccccccccccc"
       inkscape:label="Bit 2" /></g></svg>
